<svg width="467" height="187" viewBox="0 0 467 187" fill="none" xmlns="http://www.w3.org/2000/svg">
<path d="M322.66 62.5584C323.861 62.2165 324.89 61.8747 325.748 61.3619C326.606 60.8491 327.463 60.3363 328.15 59.6525C328.836 58.9688 329.35 58.2851 329.693 57.6014V48.5419H322.832C320.774 48.5419 318.887 48.7129 317.514 49.2257C315.97 49.5675 314.77 50.2513 313.912 50.935C313.054 51.6187 312.368 52.4734 311.854 53.499C311.339 54.5246 311.167 55.5502 311.167 56.7467C311.167 57.6014 311.339 58.6269 311.682 59.3107C312.025 60.1653 312.54 60.8491 313.226 61.3619C313.912 61.8747 314.598 62.2165 315.627 62.5584C316.657 62.9003 317.686 63.0712 318.887 63.0712C320.259 62.9003 321.46 62.9003 322.66 62.5584ZM330.894 70.0794C330.723 69.2248 330.551 68.3701 330.38 67.5154C329.693 68.3701 328.836 69.0538 327.807 69.7376C326.777 70.4213 325.748 71.105 324.547 71.6178C323.347 72.1306 321.974 72.6434 320.602 72.9853C319.23 73.3271 317.686 73.4981 315.97 73.4981C313.226 73.4981 310.824 73.1562 308.594 72.3015C306.364 71.6178 304.478 70.4213 302.762 69.0538C301.218 67.6864 299.846 65.977 298.988 64.0968C298.131 62.2165 297.616 60.1653 297.616 57.7723C297.616 54.8664 298.131 52.3024 299.331 50.0803C300.532 47.8582 302.076 45.9779 304.478 44.6105C306.536 43.243 308.938 42.2174 312.025 41.5337C314.941 40.85 318.372 40.5081 322.317 40.5081H329.865V37.4313C329.865 36.2348 329.693 35.0383 329.35 34.1836C329.007 33.158 328.321 32.3034 327.635 31.6196C326.777 30.9359 325.748 30.2522 324.547 29.9103C323.347 29.5684 321.974 29.3975 320.259 29.3975C318.887 29.3975 317.686 29.5684 316.657 29.9103C315.627 30.2522 314.77 30.765 314.084 31.2778C313.569 31.7906 313.054 32.4743 312.883 33.329C312.54 34.1836 312.54 35.0383 312.54 35.8929H299.16C299.16 33.6708 299.675 31.6196 300.704 29.5684C301.733 27.5173 303.105 25.8079 304.992 24.2695C306.879 22.7312 309.109 21.5346 311.854 20.68C314.598 19.8253 317.686 19.3125 321.288 19.3125C324.376 19.3125 327.463 19.6544 330.208 20.509C332.953 21.1928 335.354 22.3893 337.241 23.9277C339.299 25.4661 340.843 27.3463 341.872 29.5684C343.073 31.7906 343.588 34.5255 343.588 37.6023V59.9944C343.588 62.7293 343.759 65.1224 344.102 67.0026C344.446 68.8829 344.96 70.4213 345.646 71.7887V72.3015H331.923C331.409 71.7887 331.066 70.9341 330.894 70.0794Z" fill="#05B557"/>
<path d="M383.041 19.9996H402.596V29.9137H383.041V52.3058C383.041 54.1861 383.213 55.7245 383.727 57.0919C384.242 58.2885 384.757 59.3141 385.614 60.1687C386.472 61.0234 387.33 61.5362 388.531 61.878C389.731 62.2199 390.932 62.3908 392.304 62.3908C393.334 62.3908 394.363 62.3908 395.392 62.2199C396.421 62.049 397.45 62.049 398.48 61.878C399.509 61.7071 400.367 61.5362 401.224 61.3652C402.082 61.1943 402.768 61.0234 403.454 60.8524L404.826 70.0828C403.969 70.5956 402.768 71.1084 401.567 71.4503C400.367 71.7921 398.994 72.134 397.622 72.4758C396.25 72.8177 394.706 72.9886 393.162 73.1596C391.618 73.3305 390.074 73.3305 388.702 73.3305C385.786 73.3305 383.213 72.9886 380.811 72.134C378.41 71.4503 376.523 70.2537 374.808 68.5444C373.092 67.006 371.891 64.9548 370.862 62.5618C370.005 60.1687 369.49 57.0919 369.49 53.6733V29.9137H357.482V19.9996H369.49V7.17969H382.87L383.041 19.9996Z" fill="#05B557"/>
<path d="M437.589 30.5981C436.389 31.1109 435.188 31.9655 434.33 32.8202C433.301 33.8458 432.615 35.0423 431.929 36.4098C431.242 37.7772 430.728 39.3156 430.556 41.025H452.685V39.9994C452.685 38.6319 452.341 37.2644 451.827 36.0679C451.312 34.8714 450.626 33.6749 449.768 32.8202C448.911 31.9655 447.71 31.2818 446.509 30.769C445.137 30.2562 443.765 29.9144 442.049 29.9144C440.162 29.7434 438.79 30.0853 437.589 30.5981ZM432.443 71.1091C429.184 69.7416 426.268 68.0323 424.038 65.6392C421.636 63.4171 419.921 60.6822 418.549 57.6054C417.348 54.5286 416.662 51.2809 416.662 47.6913V45.8111C416.662 41.8796 417.348 38.1191 418.549 34.8714C419.75 31.6237 421.636 28.7178 423.866 26.3248C426.096 23.9317 428.841 22.0515 431.929 20.684C435.016 19.3165 438.447 18.6328 442.049 18.6328C445.823 18.6328 449.254 19.3165 452.17 20.5131C455.086 21.7096 457.659 23.4189 459.718 25.812C461.776 28.0341 463.32 30.769 464.349 33.8458C465.378 37.0935 465.893 40.5122 465.893 44.2727V49.9134L430.385 50.0844V50.2553C430.899 52.3065 431.414 54.0158 432.1 55.2123C432.786 56.4089 433.815 57.6054 435.016 58.631C436.217 59.6566 437.589 60.5112 439.305 61.024C440.848 61.5368 442.564 61.8787 444.451 61.8787C447.024 61.8787 449.597 61.3659 452.17 60.3403C454.571 59.3147 456.63 57.7763 458.174 55.8961L464.864 63.0752C463.148 65.4683 460.404 67.6904 456.801 69.7416C453.028 71.7928 448.739 72.6474 443.593 72.6474C439.476 72.9893 435.702 72.4765 432.443 71.1091Z" fill="#05B557"/>
<path d="M37.3949 111.79C39.1103 112.132 40.6541 112.303 41.6833 112.645L39.6249 126.49C37.738 126.148 35.8511 125.807 33.9642 125.465C32.2488 125.294 30.3619 125.294 28.6466 125.294C26.9312 125.294 25.2159 125.465 23.8436 125.807C22.4713 126.148 21.099 126.661 19.8982 127.174C18.5259 127.858 17.3252 128.883 16.4675 129.909C15.4383 131.105 14.7521 132.302 14.066 133.84V166.147H0.171534L0 112.303H12.8652L13.3798 119.824L13.5514 121.02C15.7814 117.944 18.3544 115.551 21.4421 113.841C24.5297 112.132 27.7889 111.277 31.3912 111.277C33.7927 111.448 35.6796 111.619 37.3949 111.79Z" fill="#05B557"/>
<path d="M72.731 95.5536C73.0741 94.699 73.5887 93.8443 74.2748 93.1606C74.961 92.4768 75.8187 91.964 76.8479 91.6222C77.8771 91.2803 78.9063 91.1094 80.1071 91.1094C82.5086 91.1094 84.567 91.7931 85.9393 93.1606C87.3116 94.528 88.1693 96.2374 88.1693 98.4595C88.1693 100.682 87.4832 102.391 85.9393 103.758C84.567 105.126 82.5086 105.81 80.1071 105.81C78.9063 105.81 77.8771 105.639 76.8479 105.297C75.8187 104.955 74.961 104.442 74.2748 103.758C73.5887 103.075 73.0741 102.391 72.731 101.365C72.3879 100.511 72.2164 99.4851 72.2164 98.4595C72.2164 97.4339 72.3879 96.4083 72.731 95.5536ZM87.3116 112.305L87.4831 154.867H102.064V166.149L57.9789 166.32V155.038H73.4172V123.757H57.9789V112.476L87.3116 112.305Z" fill="#05B557"/>
<path d="M128.823 145.978C129.338 147.858 130.024 149.567 130.882 150.935C131.74 152.473 132.94 153.499 134.484 154.353C135.856 155.208 137.572 155.55 139.63 155.55C140.831 155.55 141.86 155.379 142.889 155.208C143.919 155.037 144.776 154.695 145.634 154.182C146.492 153.67 147.178 153.157 147.864 152.473C148.55 151.789 149.065 151.106 149.579 150.251V127.517C149.065 126.662 148.55 125.808 147.692 125.124C147.006 124.44 146.149 123.927 145.291 123.415C144.605 123.073 143.747 122.731 142.718 122.56C141.86 122.389 140.831 122.218 139.802 122.218C137.915 122.218 136.199 122.731 134.656 123.415C133.283 124.269 132.083 125.466 131.053 126.833C130.024 128.372 129.338 130.081 128.995 131.961C128.48 134.012 128.309 136.064 128.309 138.286V139.311C128.137 142.046 128.309 144.097 128.823 145.978ZM115.787 127.517C116.816 124.098 118.188 121.192 120.075 118.799C121.962 116.406 124.192 114.526 126.937 113.159C129.681 111.791 132.597 111.107 136.028 111.107C137.915 111.107 139.459 111.278 141.003 111.62C142.546 111.962 143.919 112.475 145.119 113.159C145.977 113.671 146.835 114.184 147.692 114.868C148.55 115.552 149.236 116.235 149.922 117.09L150.437 111.962H163.131L163.302 164.096C163.302 167.686 162.616 170.934 161.415 173.84C160.215 176.745 158.499 179.139 156.269 181.019C154.039 182.899 151.295 184.437 148.207 185.463C145.119 186.489 141.517 187.001 137.743 187.001C136.199 187.001 134.313 186.83 132.426 186.489C130.539 186.147 128.652 185.634 126.937 184.95C125.05 184.266 123.334 183.412 121.79 182.215C120.075 181.19 118.703 179.822 117.674 178.455L123.849 170.079C124.707 171.105 125.736 171.959 126.765 172.814C127.794 173.669 128.823 174.181 130.024 174.694C131.053 175.207 132.254 175.549 133.455 175.891C134.656 176.062 135.856 176.233 137.057 176.233C139.116 176.233 140.831 175.891 142.546 175.378C144.09 174.865 145.462 174.011 146.492 172.814C147.521 171.788 148.207 170.592 148.722 169.054C149.236 167.515 149.408 165.977 149.408 164.096V161.02C148.722 161.703 148.036 162.387 147.349 163.071C146.663 163.755 145.806 164.267 144.948 164.609C143.747 165.293 142.375 165.806 140.831 166.148C139.287 166.49 137.743 166.66 136.028 166.66C132.597 166.66 129.681 165.977 126.937 164.609C124.192 163.242 121.962 161.362 120.075 158.968C118.188 156.575 116.644 153.67 115.615 150.422C114.586 147.174 114.071 143.414 114.071 139.482V138.457C114.243 134.696 114.757 130.936 115.787 127.517Z" fill="#05B557"/>
<path d="M192.979 116.575C193.836 115.72 194.694 114.865 195.723 114.182C197.096 113.156 198.811 112.301 200.526 111.789C202.242 111.276 204.129 110.934 206.015 110.934C208.76 110.934 211.505 111.276 213.735 112.13C216.136 112.985 218.195 114.353 219.91 116.062C221.625 117.771 222.998 120.164 223.855 122.899C224.884 125.634 225.228 129.053 225.228 132.984V165.632H211.333V132.984C211.333 131.104 211.162 129.395 210.647 128.027C210.132 126.66 209.446 125.463 208.588 124.609C207.731 123.754 206.53 123.07 205.329 122.728C204.129 122.386 202.585 122.045 201.041 122.045C199.84 122.045 198.639 122.216 197.61 122.386C196.581 122.557 195.552 122.899 194.694 123.412C193.836 123.754 193.15 124.267 192.464 124.779C191.778 125.292 191.263 125.976 190.749 126.66L190.92 165.461H177.026L176.854 89.3965H190.749V119.31C191.435 118.455 192.293 117.429 192.979 116.575Z" fill="#05B557"/>
<path d="M263.652 111.789H283.893V122.045H263.652V145.12C263.652 147.001 263.823 148.71 264.338 150.078C264.852 151.445 265.367 152.471 266.225 153.154C267.082 154.009 268.112 154.522 269.312 154.864C270.513 155.206 271.885 155.376 273.258 155.376C274.287 155.376 275.488 155.376 276.517 155.206C277.546 155.035 278.747 155.035 279.776 154.864C280.805 154.693 281.663 154.522 282.521 154.351C283.378 154.18 284.236 154.009 284.751 153.838L286.123 163.41C285.094 163.923 284.064 164.436 282.692 164.949C281.32 165.291 279.948 165.632 278.575 165.974C277.031 166.316 275.659 166.487 273.944 166.658C272.4 166.829 270.856 166.829 269.312 166.829C266.396 166.829 263.652 166.487 261.25 165.632C258.849 164.778 256.79 163.581 255.075 162.043C253.359 160.504 251.987 158.282 251.129 155.889C250.272 153.325 249.757 150.248 249.757 146.83V122.386H237.406V112.131H249.757V98.9688H263.652V111.789Z" fill="#05B557"/>
<path d="M333.81 148.541C333.467 147.857 332.781 147.344 331.752 146.831C330.722 146.319 329.522 145.806 327.806 145.293C326.262 144.78 324.032 144.438 321.631 143.926C318.543 143.242 315.627 142.558 313.054 141.532C310.481 140.678 308.251 139.481 306.364 138.114C304.477 136.746 303.105 135.208 301.904 133.499C300.875 131.789 300.36 129.738 300.36 127.516C300.36 125.294 300.875 123.243 301.904 121.191C302.933 119.14 304.477 117.431 306.536 115.893C308.594 114.354 310.996 113.158 313.74 112.303C316.656 111.448 319.744 110.936 323.346 110.936C327.12 110.936 330.551 111.277 333.467 112.303C336.383 113.158 338.956 114.354 341.186 115.893C343.245 117.431 344.788 119.311 345.989 121.362C347.018 123.414 347.704 125.807 347.704 128.2H333.81C333.81 127.345 333.638 126.49 333.295 125.636C332.952 124.781 332.609 124.097 331.923 123.585C331.065 122.73 330.036 122.046 328.492 121.533C327.12 121.021 325.405 120.85 323.346 120.85C321.631 120.85 320.087 121.021 318.886 121.362C317.686 121.704 316.656 122.217 315.799 122.73C315.113 123.243 314.598 123.926 314.083 124.61C313.74 125.294 313.569 126.149 313.569 126.832C313.569 127.687 313.74 128.371 314.083 129.054C314.426 129.738 314.941 130.422 315.799 130.935C316.656 131.447 317.857 131.96 319.229 132.473C320.773 132.986 322.489 133.328 324.89 133.67C328.149 134.182 331.237 134.866 333.982 135.721C336.726 136.575 339.128 137.601 341.186 138.968C343.245 140.336 344.788 141.874 345.989 143.755C347.19 145.635 347.704 147.857 347.704 150.421C347.704 152.814 347.19 155.036 345.989 157.087C344.788 159.138 343.245 160.848 341.186 162.215C339.128 163.754 336.555 164.779 333.467 165.634C330.551 166.489 327.12 166.83 323.518 166.83C319.401 166.83 315.799 166.318 312.711 165.292C309.623 164.266 307.05 162.899 304.82 161.19C302.762 159.48 301.047 157.6 300.017 155.378C298.988 153.156 298.474 151.105 298.302 148.883H311.51C311.682 150.421 312.025 151.617 312.711 152.643C313.397 153.669 314.255 154.523 315.456 155.207C316.485 155.891 317.857 156.404 319.229 156.574C320.602 156.916 322.146 157.087 323.518 157.087C325.233 157.087 326.949 156.916 328.149 156.574C329.522 156.233 330.551 155.891 331.409 155.378C332.266 154.865 332.781 154.181 333.295 153.498C333.638 152.814 333.982 151.959 333.982 151.276C334.496 149.908 334.153 149.053 333.81 148.541Z" fill="#05B557"/>
<path d="M25.0443 63.2459C26.2451 62.904 27.2743 62.5622 28.132 62.0494C28.9897 61.5366 29.8473 61.0238 30.5335 60.34C31.2196 59.6563 31.7342 58.9726 32.0773 58.2888V49.2294H25.2159C23.1574 49.2294 21.2705 49.4004 19.8982 49.9132C18.3544 50.255 17.1536 50.9388 16.296 51.6225C15.4383 52.3062 14.7521 53.1609 14.2375 54.1865C13.7229 55.2121 13.5514 56.2377 13.5514 57.4342C13.5514 58.2888 13.7229 59.3144 14.066 59.9982C14.4091 60.8528 14.9237 61.5366 15.6098 62.0494C16.296 62.5622 16.9821 62.904 18.0113 63.2459C19.0405 63.5878 20.0698 63.7587 21.2705 63.7587C22.6428 63.7587 24.0151 63.5878 25.0443 63.2459ZM33.2781 70.9378C33.1065 70.0832 32.935 69.2285 32.7635 68.2029C32.0773 69.0576 31.2196 69.7413 30.1904 70.4251C29.1612 71.1088 28.132 71.7925 26.9312 72.3053C25.7305 72.8181 24.3582 73.3309 22.9859 73.6728C21.6136 74.0146 20.0698 74.1856 18.3544 74.1856C15.6098 74.1856 13.2083 73.8437 10.9783 72.989C8.74836 72.1344 6.86146 71.1088 5.14609 69.7413C3.60227 68.3739 2.22997 66.6645 1.37229 64.7843C0.514608 62.904 0 60.8528 0 58.4598C0 55.5539 0.514609 52.9899 1.71536 50.7678C2.91612 48.5457 4.45995 46.6655 6.86146 45.298C8.91989 43.9305 11.3214 42.9049 14.4091 42.2212C17.3252 41.5375 20.7559 41.1956 24.7012 41.1956H32.2488V38.1188C32.2488 36.9223 32.0773 35.7258 31.7342 34.8711C31.3912 33.8455 30.705 32.9909 30.0189 32.3071C29.1612 31.6234 28.132 30.9397 26.9312 30.5978C25.7305 30.2559 24.3582 30.085 22.6428 30.085C21.2705 30.085 20.0698 30.2559 19.0405 30.5978C18.0113 30.9397 17.1536 31.4525 16.4675 31.9653C15.9529 32.4781 15.4383 33.1618 15.2667 34.0165C14.9237 34.8711 14.9237 35.7258 14.9237 36.5804H1.54383C1.54383 34.3583 2.05844 32.3071 3.08765 30.2559C4.11687 28.2048 5.48916 26.4954 7.37607 24.957C9.26297 23.4186 11.4929 22.2221 14.2375 21.3675C16.9821 20.5128 20.0698 20 23.672 20C26.7597 20 29.8473 20.3419 32.5919 21.1965C35.3365 21.8803 37.738 23.0768 39.6249 24.6152C41.6834 26.1536 43.2272 28.0338 44.2564 30.2559C45.4572 32.4781 45.9718 35.213 45.9718 38.2898V60.6819C45.9718 63.4168 46.1433 65.8099 46.4864 67.6901C46.8294 69.5704 47.3441 71.1088 48.0302 72.4762V73.3309H34.3073C33.7927 72.4762 33.6211 71.7925 33.2781 70.9378Z" fill="#05B557"/>
<path d="M87.8261 62.5612C89.0268 62.2194 90.056 61.7066 90.9137 60.8519C91.7714 60.1682 92.4576 59.3135 92.9722 58.2879C93.4868 57.2623 93.6583 56.2367 93.6583 55.0402H106.352C106.352 57.7751 105.837 60.1682 104.637 62.5612C103.436 64.9543 101.892 66.8345 99.8336 68.5439C97.7752 70.2532 95.3737 71.6206 92.8006 72.4753C90.056 73.5009 87.3115 73.8428 84.2238 73.8428C80.1069 73.8428 76.5047 73.159 73.5885 71.7916C70.5009 70.4241 67.9278 68.5439 65.8694 66.1508C63.811 63.7578 62.2671 61.0228 61.2379 57.7751C60.2087 54.5274 59.6941 51.1088 59.6941 47.5192V46.1517C59.6941 42.5621 60.2087 38.9726 61.2379 35.8958C62.2671 32.6481 63.811 29.9131 65.8694 27.5201C67.9278 25.127 70.5009 23.2468 73.5885 21.8793C76.6762 20.5119 80.1069 19.8281 84.2238 19.8281C87.483 19.8281 90.3991 20.3409 93.1437 21.1956C95.8883 22.2212 98.2898 23.4177 100.348 25.298C102.407 27.0073 103.779 29.2294 104.98 31.6225C106.009 34.1864 106.524 36.9214 106.524 39.9981H93.8298C93.8298 38.6307 93.6583 37.4342 93.3152 36.4086C92.8006 35.212 92.1145 34.1864 91.2568 33.5027C90.3991 32.6481 89.3699 31.9643 88.1691 31.4515C86.9684 30.9387 85.5961 30.7678 84.2238 30.7678C82.1654 30.7678 80.2785 31.2806 78.9062 32.1353C77.5339 32.9899 76.5047 34.1864 75.647 35.5539C74.7893 36.9214 74.2747 38.6307 73.9316 40.5109C73.5885 42.3912 73.417 44.2715 73.417 46.3226V47.6901C73.417 49.7413 73.5885 51.6216 73.9316 53.5018C74.2747 55.3821 74.7893 57.0914 75.647 58.4588C76.5047 59.8263 77.5339 61.0228 78.9062 61.8775C80.2785 62.7322 82.1654 63.245 84.2238 63.245C85.4246 63.245 86.6253 63.074 87.8261 62.5612Z" fill="#05B557"/>
<path d="M144.948 20.6813H164.503V30.5953H144.948V52.9875C144.948 54.8677 145.12 56.4061 145.634 57.7736C146.149 58.9701 146.663 59.9957 147.521 60.8504C148.379 61.705 149.236 62.2178 150.437 62.5597C151.638 62.9015 152.839 63.0725 154.211 63.0725C155.24 63.0725 156.269 63.0725 157.299 62.9016C158.328 62.7306 159.357 62.7306 160.386 62.5597C161.416 62.3888 162.273 62.2178 163.131 62.0469C163.989 61.876 164.675 61.705 165.361 61.5341L166.733 70.7644C165.876 71.2772 164.675 71.79 163.474 72.1319C162.273 72.4738 160.901 72.8156 159.529 73.1575C158.156 73.4994 156.613 73.6703 155.069 73.8412C153.525 74.0122 151.981 74.0122 150.609 74.0122C147.693 74.0122 145.12 73.6703 142.718 72.8156C140.317 72.1319 138.43 70.9354 136.714 69.226C134.999 67.6877 133.798 65.6365 132.769 63.2434C131.911 60.8504 131.397 57.7736 131.397 54.3549V30.5953H119.389V20.6813H131.397V7.86133H144.777L144.948 20.6813Z" fill="#05B557"/>
<path d="M197.953 4.27331C198.296 3.41865 198.81 2.56398 199.496 2.05119C200.183 1.36746 201.04 1.02559 201.898 0.512796C202.927 0.170931 203.956 0 205.157 0C207.559 0 209.446 0.683727 210.818 2.05119C212.19 3.41865 212.876 5.12797 212.876 7.17916C212.876 9.23035 212.19 10.9397 210.818 12.3071C209.446 13.6746 207.559 14.3583 205.157 14.3583C203.956 14.3583 202.927 14.1874 201.898 13.8455C200.869 13.5037 200.183 12.9909 199.496 12.3071C198.81 11.6234 198.296 10.9397 197.953 10.085C197.61 9.23035 197.438 8.20475 197.438 7.17916C197.266 6.15356 197.438 5.12797 197.953 4.27331ZM212.019 20.5119L212.19 61.8775H226.428V72.8172L183.715 72.9881V62.0484H198.639V31.6225H183.715V20.6828L212.019 20.5119Z" fill="#05B557"/>
<path d="M236.034 20.3398H250.1L261.593 57.0903L262.45 60.8508L263.136 57.0903L274.458 20.3398H288.524L268.797 72.4742H256.103L236.034 20.3398Z" fill="#05B557"/>
<path d="M364.858 171.616L391.961 92.9873L404.826 92.8164L377.895 171.616H364.858Z" fill="#1423CB"/>
<path d="M426.268 171.445L453.199 92.8164H466.236L439.133 171.445H426.268Z" fill="#1423CB"/>
</svg>
